<?xml version="1.0" encoding="UTF-8"?>
<!DOCTYPE svg PUBLIC "-//W3C//DTD SVG 1.1//EN" "http://www.w3.org/Graphics/SVG/1.1/DTD/svg11.dtd">
<svg xmlns="http://www.w3.org/2000/svg" version="1.1" width="1024px" height="1024px" style="shape-rendering:geometricPrecision; text-rendering:geometricPrecision; image-rendering:optimizeQuality; fill-rule:evenodd; clip-rule:evenodd" xmlns:xlink="http://www.w3.org/1999/xlink">
<g><path style="opacity:1" fill="#fefefe" d="M -0.5,-0.5 C 340.833,-0.5 682.167,-0.5 1023.5,-0.5C 1023.5,340.833 1023.5,682.167 1023.5,1023.5C 682.167,1023.5 340.833,1023.5 -0.5,1023.5C -0.5,682.167 -0.5,340.833 -0.5,-0.5 Z"/></g>
<g><path style="opacity:1" fill="#040404" d="M 622.5,523.5 C 623.043,523.44 623.376,523.107 623.5,522.5C 605.846,521.5 588.179,521.167 570.5,521.5C 570.5,515.167 570.5,508.833 570.5,502.5C 595.167,502.5 619.833,502.5 644.5,502.5C 644.5,506.5 644.5,510.5 644.5,514.5C 642.23,542.889 628.563,563.722 603.5,577C 577.176,587.687 552.176,585.354 528.5,570C 501.549,546.033 494.049,516.866 506,482.5C 521.754,450.202 547.587,436.036 583.5,440C 605.979,444.393 622.979,456.393 634.5,476C 627.816,477.437 621.149,478.937 614.5,480.5C 594.404,457.757 570.737,453.257 543.5,467C 518.143,487.115 512.976,511.615 528,540.5C 545.61,563.864 568.11,570.031 595.5,559C 609.957,551.369 618.957,539.536 622.5,523.5 Z"/></g>
<g><path style="opacity:1" fill="#010101" d="M 375.5,440.5 C 405.833,440.5 436.167,440.5 466.5,440.5C 466.5,446.833 466.5,453.167 466.5,459.5C 442.5,459.5 418.5,459.5 394.5,459.5C 393.505,471.989 393.171,484.656 393.5,497.5C 414.167,497.5 434.833,497.5 455.5,497.5C 455.5,503.5 455.5,509.5 455.5,515.5C 434.993,515.17 414.66,515.503 394.5,516.5C 393.504,532.325 393.17,548.325 393.5,564.5C 417.5,564.5 441.5,564.5 465.5,564.5C 465.5,570.5 465.5,576.5 465.5,582.5C 435.5,582.5 405.5,582.5 375.5,582.5C 375.5,535.167 375.5,487.833 375.5,440.5 Z"/></g>
<g><path style="opacity:1" fill="#050505" d="M 810.5,580.5 C 804.355,581.49 798.022,581.823 791.5,581.5C 784.5,565.5 777.5,549.5 770.5,533.5C 754.5,532.833 738.5,532.167 722.5,531.5C 724.039,525.434 726.372,519.767 729.5,514.5C 740.52,514.832 751.52,514.499 762.5,513.5C 762.145,512.478 761.478,511.811 760.5,511.5C 753.296,492.752 745.796,474.086 738,455.5C 720.395,497.488 702.895,539.488 685.5,581.5C 678.646,581.824 671.979,581.491 665.5,580.5C 683.908,533.949 702.908,487.616 722.5,441.5C 732.812,440.501 743.145,440.168 753.5,440.5C 772.5,487.167 791.5,533.833 810.5,580.5 Z"/></g>
<g><path style="opacity:1" fill="#070707" d="M 211.5,440.5 C 219.86,440.169 228.193,440.502 236.5,441.5C 250.667,463.167 264.833,484.833 279,506.5C 282.651,513.802 286.318,521.136 290,528.5C 290.5,546.497 290.667,564.497 290.5,582.5C 284.167,582.5 277.833,582.5 271.5,582.5C 271.667,568.163 271.5,553.829 271,539.5C 268.948,529.346 264.948,520.013 259,511.5C 243.146,487.776 227.313,464.109 211.5,440.5 Z"/></g>
<g><path style="opacity:1" fill="#070707" d="M 325.5,440.5 C 333.196,440.169 340.862,440.503 348.5,441.5C 334.082,464.004 319.415,486.338 304.5,508.5C 300.581,502.33 296.914,495.997 293.5,489.5C 304.934,473.622 315.601,457.289 325.5,440.5 Z"/></g>
<g><path style="opacity:1" fill="#959595" d="M 394.5,459.5 C 394.5,471.833 394.5,484.167 394.5,496.5C 415.34,496.169 436.007,496.503 456.5,497.5C 456.167,497.5 455.833,497.5 455.5,497.5C 434.833,497.5 414.167,497.5 393.5,497.5C 393.171,484.656 393.505,471.989 394.5,459.5 Z"/></g>
<g><path style="opacity:1" fill="#c1c1c1" d="M 570.5,502.5 C 595.328,501.502 620.328,501.169 645.5,501.5C 645.818,506.032 645.485,510.366 644.5,514.5C 644.5,510.5 644.5,506.5 644.5,502.5C 619.833,502.5 595.167,502.5 570.5,502.5 Z"/></g>
<g><path style="opacity:1" fill="#a9a9a9" d="M 760.5,511.5 C 761.478,511.811 762.145,512.478 762.5,513.5C 751.52,514.499 740.52,514.832 729.5,514.5C 740.04,514.158 750.374,513.158 760.5,511.5 Z"/></g>
<g><path style="opacity:1" fill="#353535" d="M 455.5,497.5 C 455.833,497.5 456.167,497.5 456.5,497.5C 456.5,503.833 456.5,510.167 456.5,516.5C 435.833,516.5 415.167,516.5 394.5,516.5C 414.66,515.503 434.993,515.17 455.5,515.5C 455.5,509.5 455.5,503.5 455.5,497.5 Z"/></g>
<g><path style="opacity:1" fill="#c4c4c4" d="M 570.5,521.5 C 588.179,521.167 605.846,521.5 623.5,522.5C 623.376,523.107 623.043,523.44 622.5,523.5C 605.167,522.833 587.833,522.167 570.5,521.5 Z"/></g>
<g><path style="opacity:1" fill="#616161" d="M 722.5,531.5 C 738.5,532.167 754.5,532.833 770.5,533.5C 754.153,533.833 737.82,533.499 721.5,532.5C 721.624,531.893 721.957,531.56 722.5,531.5 Z"/></g>
<g><path style="opacity:1" fill="#989898" d="M 394.5,516.5 C 394.5,532.167 394.5,547.833 394.5,563.5C 418.672,563.169 442.672,563.502 466.5,564.5C 466.167,564.5 465.833,564.5 465.5,564.5C 441.5,564.5 417.5,564.5 393.5,564.5C 393.17,548.325 393.504,532.325 394.5,516.5 Z"/></g>
<g><path style="opacity:1" fill="#484848" d="M 665.5,580.5 C 671.979,581.491 678.646,581.824 685.5,581.5C 678.656,582.819 671.656,582.819 664.5,581.5C 664.624,580.893 664.957,580.56 665.5,580.5 Z"/></g>
<g><path style="opacity:1" fill="#444444" d="M 810.5,580.5 C 811.043,580.56 811.376,580.893 811.5,581.5C 804.678,582.818 798.011,582.818 791.5,581.5C 798.022,581.823 804.355,581.49 810.5,580.5 Z"/></g>
<g><path style="opacity:1" fill="#6b6b6b" d="M 375.5,440.5 C 375.5,487.833 375.5,535.167 375.5,582.5C 405.5,582.5 435.5,582.5 465.5,582.5C 465.5,576.5 465.5,570.5 465.5,564.5C 465.833,564.5 466.167,564.5 466.5,564.5C 466.5,570.833 466.5,577.167 466.5,583.5C 435.833,583.5 405.167,583.5 374.5,583.5C 374.168,535.664 374.501,487.997 375.5,440.5 Z"/></g>
</svg>
