<?xml version="1.0" encoding="UTF-8"?>
<!DOCTYPE svg PUBLIC "-//W3C//DTD SVG 1.1//EN" "http://www.w3.org/Graphics/SVG/1.1/DTD/svg11.dtd">
<svg xmlns="http://www.w3.org/2000/svg" version="1.1" width="1024px" height="1024px" style="shape-rendering:geometricPrecision; text-rendering:geometricPrecision; image-rendering:optimizeQuality; fill-rule:evenodd; clip-rule:evenodd" xmlns:xlink="http://www.w3.org/1999/xlink">
<g><path style="opacity:0.052" fill="#e6ebe0" d="M 235.5,440.5 C 227.472,440.169 219.472,440.502 211.5,441.5C 211.863,442.183 212.196,442.85 212.5,443.5C 210.824,442.817 210.157,441.483 210.5,439.5C 219.017,439.174 227.35,439.507 235.5,440.5 Z"/></g>
<g><path style="opacity:0.99" fill="#fcfdfc" d="M 541.5,469.5 C 539.973,469.427 538.973,470.094 538.5,471.5C 537.167,473.5 535.5,475.167 533.5,476.5C 531.738,477.262 530.738,478.596 530.5,480.5C 526.728,486.382 523.728,492.715 521.5,499.5C 520.539,501.265 520.205,503.265 520.5,505.5C 519.167,510.167 519.167,514.833 520.5,519.5C 520.953,520.458 521.619,521.292 522.5,522C 521.748,522.671 521.414,523.504 521.5,524.5C 521.263,525.791 521.596,526.791 522.5,527.5C 524.499,531.828 526.499,536.162 528.5,540.5C 529.08,542.749 530.413,544.415 532.5,545.5C 541.332,555.417 552.332,561.417 565.5,563.5C 570.368,564.213 575.368,564.879 580.5,565.5C 581.696,565.154 581.696,564.654 580.5,564C 581.737,563.768 582.737,563.268 583.5,562.5C 585.099,562.768 586.432,562.434 587.5,561.5C 606.116,554.74 617.782,542.073 622.5,523.5C 623.043,523.44 623.376,523.107 623.5,522.5C 605.846,521.5 588.179,521.167 570.5,521.5C 569.167,515.167 569.167,508.833 570.5,502.5C 595.167,502.5 619.833,502.5 644.5,502.5C 644.5,508.167 644.5,513.833 644.5,519.5C 644.749,523.458 644.082,527.124 642.5,530.5C 641.596,531.209 641.263,532.209 641.5,533.5C 641.741,535.898 641.074,537.898 639.5,539.5C 637.707,541.426 636.707,543.759 636.5,546.5C 622.099,571.859 600.433,584.526 571.5,584.5C 565.694,584.596 560.028,583.93 554.5,582.5C 551.785,580.928 548.785,579.928 545.5,579.5C 535.307,576.013 526.641,570.347 519.5,562.5C 518.243,559.573 516.243,557.239 513.5,555.5C 512.158,552.834 510.325,550.501 508,548.5C 505.276,543.159 503.442,537.493 502.5,531.5C 502.435,528.572 501.768,525.905 500.5,523.5C 498.995,514.103 499.328,504.769 501.5,495.5C 502.404,494.791 502.737,493.791 502.5,492.5C 501.529,491.038 501.862,489.705 503.5,488.5C 504.404,487.791 504.737,486.791 504.5,485.5C 505.171,484.153 505.171,482.986 504.5,482C 506.301,481.683 506.634,481.016 505.5,480C 506.636,478.855 507.636,477.688 508.5,476.5C 509.89,475.101 510.89,473.434 511.5,471.5C 515.128,464.543 520.128,458.877 526.5,454.5C 530.344,452.413 534.011,450.08 537.5,447.5C 540.021,445.981 542.521,444.314 545,442.5C 545.383,443.056 545.883,443.389 546.5,443.5C 549.94,442.489 553.274,441.489 556.5,440.5C 557.641,439.661 558.974,438.994 560.5,438.5C 567.053,438.468 573.72,438.634 580.5,439C 604.646,441.674 622.979,454.007 635.5,476C 634.631,477.869 633.465,478.369 632,477.5C 625.978,478.726 619.978,480.059 614,481.5C 592.938,457.961 568.772,453.961 541.5,469.5 Z"/></g>
<g><path style="opacity:0.264" fill="#dee4da" d="M 753.5,440.5 C 742.752,440.191 732.085,440.524 721.5,441.5C 726.456,440.172 731.789,439.505 737.5,439.5C 743.011,439.501 748.344,439.834 753.5,440.5 Z"/></g>
<g><path style="opacity:0.982" fill="#fcfdfc" d="M 235.5,440.5 C 237.074,440.937 238.241,441.937 239,443.5C 249.885,460.733 261.218,477.733 273,494.5C 275.393,497.952 277.226,501.619 278.5,505.5C 279.326,508.485 280.659,511.151 282.5,513.5C 285.268,517.586 287.768,521.92 290,526.5C 290.241,531.705 290.741,536.872 291.5,542C 291.64,555.626 291.306,569.126 290.5,582.5C 284.167,582.5 277.833,582.5 271.5,582.5C 271.829,568.656 271.496,554.99 270.5,541.5C 269.311,538.388 268.311,535.222 267.5,532C 267.833,531.667 268.167,531.333 268.5,531C 266.512,528.028 265.012,524.861 264,521.5C 261.115,517.628 258.281,513.794 255.5,510C 255.833,509.667 256.167,509.333 256.5,509C 252.463,505.141 249.463,500.641 247.5,495.5C 246.331,492.489 244.664,489.822 242.5,487.5C 231.795,473.983 221.795,459.317 212.5,443.5C 212.196,442.85 211.863,442.183 211.5,441.5C 219.472,440.502 227.472,440.169 235.5,440.5 Z"/></g>
<g><path style="opacity:0.982" fill="#fbfcfa" d="M 293.5,488.5 C 295.822,487.198 297.155,485.198 297.5,482.5C 297.427,480.973 298.094,479.973 299.5,479.5C 300.906,479.027 301.573,478.027 301.5,476.5C 302.449,474.223 303.782,472.223 305.5,470.5C 306.906,470.027 307.573,469.027 307.5,467.5C 308.34,465.147 309.674,463.147 311.5,461.5C 313.326,459.853 314.66,457.853 315.5,455.5C 319.009,450.482 322.342,445.316 325.5,440C 333.493,439.5 341.493,439.334 349.5,439.5C 348.497,442.991 346.997,446.325 345,449.5C 331.721,469.214 318.555,489.047 305.5,509C 304.551,509.617 303.718,509.451 303,508.5C 299.674,502.646 296.34,497.312 293,492.5C 292.235,490.934 292.402,489.601 293.5,488.5 Z"/></g>
<g><path style="opacity:0.98" fill="#fdfefd" d="M 394.5,561.5 C 393.596,562.209 393.263,563.209 393.5,564.5C 417.833,564.5 442.167,564.5 466.5,564.5C 466.766,571.023 466.766,577.023 466.5,582.5C 436.662,582.169 406.995,582.502 377.5,583.5C 375.641,583.539 374.308,582.706 373.5,581C 374.497,533.905 374.83,486.739 374.5,439.5C 405.174,439.167 435.841,439.5 466.5,440.5C 467.129,446.672 467.129,453.172 466.5,460C 442.502,460.5 418.502,460.667 394.5,460.5C 394.5,472.5 394.5,484.5 394.5,496.5C 415.169,496.333 435.836,496.5 456.5,497C 456.957,497.414 457.291,497.914 457.5,498.5C 456.695,504.554 456.362,510.72 456.5,517C 436.207,517.615 415.874,517.615 395.5,517C 394.509,531.755 394.176,546.588 394.5,561.5 Z"/></g>
<g><path style="opacity:0.988" fill="#fcfdfc" d="M 753.5,440.5 C 768.016,474.355 781.683,507.355 794.5,539.5C 795.314,543.116 796.648,546.449 798.5,549.5C 799.404,550.209 799.737,551.209 799.5,552.5C 799.992,554.819 800.992,556.819 802.5,558.5C 805.835,566.172 809.168,573.838 812.5,581.5C 811.758,582.287 810.925,582.953 810,583.5C 803.619,583.94 797.119,583.44 790.5,582C 783.662,568.266 777.496,553.766 772,538.5C 771.344,536.014 769.844,534.347 767.5,533.5C 752.341,532.324 737.341,532.324 722.5,533.5C 722.565,533.938 722.399,534.272 722,534.5C 721.626,533.584 721.126,532.75 720.5,532C 722.474,528.543 724.14,525.043 725.5,521.5C 726.674,520.486 727.34,519.153 727.5,517.5C 727.263,516.209 727.596,515.209 728.5,514.5C 739.838,514.667 751.172,514.5 762.5,514C 761.934,513.005 761.267,512.172 760.5,511.5C 757.666,506.832 755.666,501.832 754.5,496.5C 753.736,493.982 752.736,491.649 751.5,489.5C 749.519,488.895 749.185,487.895 750.5,486.5C 750.34,484.847 749.674,483.514 748.5,482.5C 744.857,474.305 741.357,465.971 738,457.5C 737.243,459.315 736.41,460.981 735.5,462.5C 734.069,463.78 733.402,465.447 733.5,467.5C 733.249,469.17 732.582,470.67 731.5,472C 731.833,472.333 732.167,472.667 732.5,473C 731.239,475.255 729.906,477.422 728.5,479.5C 727.596,480.209 727.263,481.209 727.5,482.5C 725.992,484.181 724.992,486.181 724.5,488.5C 724.5,488.833 724.5,489.167 724.5,489.5C 723.069,490.78 722.402,492.447 722.5,494.5C 717.992,506.519 712.992,518.352 707.5,530C 708.089,531.873 707.422,533.54 705.5,535C 705.833,535.333 706.167,535.667 706.5,536C 702.646,541.06 699.98,546.394 698.5,552C 695.18,561.545 691.18,571.211 686.5,581C 686.833,581.333 687.167,581.667 687.5,582C 686.584,582.374 685.75,582.874 685,583.5C 679.982,583.37 674.648,583.37 669,583.5C 667.189,582.922 665.355,582.422 663.5,582C 665.406,577.446 667.406,572.946 669.5,568.5C 670.674,567.486 671.34,566.153 671.5,564.5C 671.5,564.167 671.5,563.833 671.5,563.5C 672.674,562.486 673.34,561.153 673.5,559.5C 673.796,557.597 674.463,555.93 675.5,554.5C 676.537,553.07 677.204,551.403 677.5,549.5C 679.219,544.394 681.219,539.394 683.5,534.5C 684.674,533.486 685.34,532.153 685.5,530.5C 686.171,529.153 686.171,527.986 685.5,527C 686.883,525.729 687.883,524.229 688.5,522.5C 689.931,521.22 690.598,519.553 690.5,517.5C 690.328,516.508 690.662,515.842 691.5,515.5C 692.931,514.22 693.598,512.553 693.5,510.5C 693.829,508.009 694.829,505.843 696.5,504C 696.167,503.667 695.833,503.333 695.5,503C 697.422,501.54 698.089,499.873 697.5,498C 699.64,494.219 701.64,490.385 703.5,486.5C 704.87,484.75 705.87,482.75 706.5,480.5C 706.905,477.285 707.905,474.285 709.5,471.5C 710.674,470.486 711.34,469.153 711.5,467.5C 711.5,467.167 711.5,466.833 711.5,466.5C 712.931,465.22 713.598,463.553 713.5,461.5C 715.592,458.912 716.925,455.912 717.5,452.5C 717.402,450.447 718.069,448.78 719.5,447.5C 720.537,446.07 721.204,444.403 721.5,442.5C 721.5,442.167 721.5,441.833 721.5,441.5C 732.085,440.524 742.752,440.191 753.5,440.5 Z"/></g>
<g><path style="opacity:0.322" fill="#e0e7de" d="M 556.5,440.5 C 553.274,441.489 549.94,442.489 546.5,443.5C 548.925,441.514 551.758,440.181 555,439.5C 555.383,440.056 555.883,440.389 556.5,440.5 Z"/></g>
<g><path style="opacity:0.004" fill="#dde7df" d="M 721.5,442.5 C 721.204,444.403 720.537,446.07 719.5,447.5C 719.12,445.302 719.787,443.635 721.5,442.5 Z"/></g>
<g><path style="opacity:0.02" fill="#e0e8dd" d="M 537.5,447.5 C 534.011,450.08 530.344,452.413 526.5,454.5C 529.357,450.904 533.024,448.571 537.5,447.5 Z"/></g>
<g><path style="opacity:0.365" fill="#e7eee3" d="M 315.5,455.5 C 314.66,457.853 313.326,459.853 311.5,461.5C 311.845,458.802 313.178,456.802 315.5,455.5 Z"/></g>
<g><path style="opacity:0.078" fill="#dfeae1" d="M 717.5,452.5 C 716.925,455.912 715.592,458.912 713.5,461.5C 714.059,458.057 715.393,455.057 717.5,452.5 Z"/></g>
<g><path style="opacity:0.059" fill="#dde8df" d="M 713.5,461.5 C 713.598,463.553 712.931,465.22 711.5,466.5C 711.402,464.447 712.069,462.78 713.5,461.5 Z"/></g>
<g><path style="opacity:0.153" fill="#e0e9e2" d="M 735.5,462.5 C 735.598,464.553 734.931,466.22 733.5,467.5C 733.402,465.447 734.069,463.78 735.5,462.5 Z"/></g>
<g><path style="opacity:0.267" fill="#e4ebe0" d="M 307.5,467.5 C 307.573,469.027 306.906,470.027 305.5,470.5C 305.427,468.973 306.094,467.973 307.5,467.5 Z"/></g>
<g><path style="opacity:0.337" fill="#e1ece3" d="M 711.5,467.5 C 711.34,469.153 710.674,470.486 709.5,471.5C 709.229,469.62 709.896,468.287 711.5,467.5 Z"/></g>
<g><path style="opacity:0.106" fill="#dee9df" d="M 541.5,469.5 C 541.027,470.906 540.027,471.573 538.5,471.5C 538.973,470.094 539.973,469.427 541.5,469.5 Z"/></g>
<g><path style="opacity:0.224" fill="#e1eae0" d="M 511.5,471.5 C 510.89,473.434 509.89,475.101 508.5,476.5C 508.273,474.067 509.273,472.401 511.5,471.5 Z"/></g>
<g><path style="opacity:0.192" fill="#e4ebe0" d="M 301.5,476.5 C 301.573,478.027 300.906,479.027 299.5,479.5C 299.427,477.973 300.094,476.973 301.5,476.5 Z"/></g>
<g><path style="opacity:0.004" fill="#e1ebdf" d="M 533.5,476.5 C 533.262,478.404 532.262,479.738 530.5,480.5C 530.738,478.596 531.738,477.262 533.5,476.5 Z"/></g>
<g><path style="opacity:0.153" fill="#e5f0e5" d="M 728.5,479.5 C 728.938,479.435 729.272,479.601 729.5,480C 728.934,480.995 728.267,481.828 727.5,482.5C 727.263,481.209 727.596,480.209 728.5,479.5 Z"/></g>
<g><path style="opacity:0.004" fill="#e0e9e2" d="M 706.5,480.5 C 705.87,482.75 704.87,484.75 703.5,486.5C 703.386,483.784 704.386,481.784 706.5,480.5 Z"/></g>
<g><path style="opacity:0.075" fill="#e6f1e6" d="M 727.5,482.5 C 727.614,485.216 726.614,487.216 724.5,488.5C 724.992,486.181 725.992,484.181 727.5,482.5 Z"/></g>
<g><path style="opacity:0.141" fill="#dce3e2" d="M 748.5,482.5 C 749.674,483.514 750.34,484.847 750.5,486.5C 748.896,485.713 748.229,484.38 748.5,482.5 Z"/></g>
<g><path style="opacity:0.165" fill="#e8ede2" d="M 297.5,482.5 C 297.155,485.198 295.822,487.198 293.5,488.5C 294.34,486.147 295.674,484.147 297.5,482.5 Z"/></g>
<g><path style="opacity:0.478" fill="#dde6df" d="M 504.5,485.5 C 504.737,486.791 504.404,487.791 503.5,488.5C 503.062,488.565 502.728,488.399 502.5,488C 503.066,487.005 503.733,486.172 504.5,485.5 Z"/></g>
<g><path style="opacity:0.072" fill="#e6f0e5" d="M 724.5,489.5 C 724.938,489.435 725.272,489.601 725.5,490C 724.601,491.652 723.601,493.152 722.5,494.5C 722.402,492.447 723.069,490.78 724.5,489.5 Z"/></g>
<g><path style="opacity:0.008" fill="#e8ede7" d="M 242.5,487.5 C 244.664,489.822 246.331,492.489 247.5,495.5C 244.818,493.47 243.151,490.803 242.5,487.5 Z"/></g>
<g><path style="opacity:0.384" fill="#dae1dc" d="M 502.5,492.5 C 502.737,493.791 502.404,494.791 501.5,495.5C 501.062,495.565 500.728,495.399 500.5,495C 501.066,494.005 501.733,493.172 502.5,492.5 Z"/></g>
<g><path style="opacity:0.278" fill="#dfe6e2" d="M 751.5,489.5 C 752.736,491.649 753.736,493.982 754.5,496.5C 752.166,494.824 751.166,492.491 751.5,489.5 Z"/></g>
<g><path style="opacity:0.169" fill="#e3ede3" d="M 521.5,499.5 C 522.043,499.56 522.376,499.893 522.5,500.5C 521.972,502.336 521.306,504.003 520.5,505.5C 520.205,503.265 520.539,501.265 521.5,499.5 Z"/></g>
<g><path style="opacity:0.199" fill="#e4ebe2" d="M 570.5,502.5 C 595.328,501.502 620.328,501.169 645.5,501.5C 645.823,507.69 645.49,513.69 644.5,519.5C 644.5,513.833 644.5,508.167 644.5,502.5C 619.833,502.5 595.167,502.5 570.5,502.5 Z"/></g>
<g><path style="opacity:0.243" fill="#e0eae3" d="M 520.5,505.5 C 520.653,510.416 520.653,515.083 520.5,519.5C 519.167,514.833 519.167,510.167 520.5,505.5 Z"/></g>
<g><path style="opacity:0.149" fill="#e8f0e8" d="M 278.5,505.5 C 280.873,507.579 282.206,510.246 282.5,513.5C 280.659,511.151 279.326,508.485 278.5,505.5 Z"/></g>
<g><path style="opacity:0.053" fill="#dbe5de" d="M 693.5,510.5 C 693.598,512.553 692.931,514.22 691.5,515.5C 691.402,513.447 692.069,511.78 693.5,510.5 Z"/></g>
<g><path style="opacity:0.31" fill="#e5ebe4" d="M 760.5,511.5 C 761.267,512.172 761.934,513.005 762.5,514C 751.172,514.5 739.838,514.667 728.5,514.5C 728.811,513.522 729.478,512.855 730.5,512.5C 735.737,513.02 741.57,513.353 748,513.5C 752.557,513.491 756.724,512.825 760.5,511.5 Z"/></g>
<g><path style="opacity:0.088" fill="#dde6de" d="M 690.5,517.5 C 690.598,519.553 689.931,521.22 688.5,522.5C 688.402,520.447 689.069,518.78 690.5,517.5 Z"/></g>
<g><path style="opacity:0.131" fill="#e1e5e0" d="M 727.5,517.5 C 727.34,519.153 726.674,520.486 725.5,521.5C 725.229,519.62 725.896,518.287 727.5,517.5 Z"/></g>
<g><path style="opacity:0.214" fill="#e2e8e2" d="M 570.5,521.5 C 588.179,521.167 605.846,521.5 623.5,522.5C 623.376,523.107 623.043,523.44 622.5,523.5C 605.167,522.833 587.833,522.167 570.5,521.5 Z"/></g>
<g><path style="opacity:0.251" fill="#e2ece3" d="M 521.5,524.5 C 522.267,525.172 522.934,526.005 523.5,527C 523.272,527.399 522.938,527.565 522.5,527.5C 521.596,526.791 521.263,525.791 521.5,524.5 Z"/></g>
<g><path style="opacity:0.043" fill="#e5e9e3" d="M 500.5,523.5 C 501.768,525.905 502.435,528.572 502.5,531.5C 500.96,529.162 500.294,526.495 500.5,523.5 Z"/></g>
<g><path style="opacity:0.192" fill="#e2ece3" d="M 642.5,530.5 C 643.815,531.895 643.481,532.895 641.5,533.5C 641.263,532.209 641.596,531.209 642.5,530.5 Z"/></g>
<g><path style="opacity:0.133" fill="#dee7e0" d="M 685.5,530.5 C 685.34,532.153 684.674,533.486 683.5,534.5C 683.229,532.62 683.896,531.287 685.5,530.5 Z"/></g>
<g><path style="opacity:0.567" fill="#f4f9ef" d="M 722.5,533.5 C 737.341,532.324 752.341,532.324 767.5,533.5C 752.532,534.565 737.532,534.565 722.5,533.5 Z"/></g>
<g><path style="opacity:0.008" fill="#e9f2e8" d="M 794.5,539.5 C 796.897,542.309 798.23,545.642 798.5,549.5C 796.648,546.449 795.314,543.116 794.5,539.5 Z"/></g>
<g><path style="opacity:0.388" fill="#ebf2ea" d="M 528.5,540.5 C 530.587,541.585 531.92,543.251 532.5,545.5C 530.413,544.415 529.08,542.749 528.5,540.5 Z"/></g>
<g><path style="opacity:0.09" fill="#eaf2e8" d="M 639.5,539.5 C 639.293,542.241 638.293,544.574 636.5,546.5C 636.707,543.759 637.707,541.426 639.5,539.5 Z"/></g>
<g><path style="opacity:0.008" fill="#e2eae1" d="M 677.5,549.5 C 677.204,551.403 676.537,553.07 675.5,554.5C 675.12,552.302 675.787,550.635 677.5,549.5 Z"/></g>
<g><path style="opacity:0.061" fill="#e8f1e7" d="M 799.5,552.5 C 800.497,552.47 801.164,552.97 801.5,554C 801.903,555.473 802.57,556.806 803.5,558C 803.272,558.399 802.938,558.565 802.5,558.5C 800.992,556.819 799.992,554.819 799.5,552.5 Z"/></g>
<g><path style="opacity:0.031" fill="#eef2ec" d="M 270.5,541.5 C 271.496,554.99 271.829,568.656 271.5,582.5C 277.833,582.5 284.167,582.5 290.5,582.5C 284.021,583.491 277.354,583.824 270.5,583.5C 270.456,569.291 270.456,555.291 270.5,541.5 Z"/></g>
<g><path style="opacity:0.024" fill="#ecf2e8" d="M 513.5,555.5 C 516.243,557.239 518.243,559.573 519.5,562.5C 516.757,560.761 514.757,558.427 513.5,555.5 Z"/></g>
<g><path style="opacity:0.008" fill="#e0e8e0" d="M 673.5,559.5 C 673.34,561.153 672.674,562.486 671.5,563.5C 671.229,561.62 671.896,560.287 673.5,559.5 Z"/></g>
<g><path style="opacity:0.38" fill="#e2e9de" d="M 587.5,561.5 C 586.432,562.434 585.099,562.768 583.5,562.5C 584.531,561.751 585.698,561.085 587,560.5C 587.399,560.728 587.565,561.062 587.5,561.5 Z"/></g>
<g><path style="opacity:0.403" fill="#e4ece5" d="M 394.5,561.5 C 418.316,563.164 442.316,564.164 466.5,564.5C 442.167,564.5 417.833,564.5 393.5,564.5C 393.263,563.209 393.596,562.209 394.5,561.5 Z"/></g>
<g><path style="opacity:1" fill="#e9eee9" d="M 583.5,562.5 C 582.737,563.268 581.737,563.768 580.5,564C 581.696,564.654 581.696,565.154 580.5,565.5C 575.368,564.879 570.368,564.213 565.5,563.5C 571.399,563.332 577.399,562.999 583.5,562.5 Z"/></g>
<g><path style="opacity:0.051" fill="#e2e8e1" d="M 671.5,564.5 C 671.34,566.153 670.674,567.486 669.5,568.5C 669.062,568.565 668.728,568.399 668.5,568C 669.163,566.482 670.163,565.315 671.5,564.5 Z"/></g>
<g><path style="opacity:0.035" fill="#eaf0e8" d="M 545.5,579.5 C 548.785,579.928 551.785,580.928 554.5,582.5C 554.565,582.938 554.399,583.272 554,583.5C 551.553,582.594 549.053,581.761 546.5,581C 545.944,580.617 545.611,580.117 545.5,579.5 Z"/></g>
<g><path style="opacity:0.646" fill="#f1f5f2" d="M 377.5,583.5 C 406.995,582.502 436.662,582.169 466.5,582.5C 463.135,584.039 459.469,584.706 455.5,584.5C 429.51,583.576 403.51,583.243 377.5,583.5 Z"/></g>
</svg>
