<?xml version="1.0" encoding="UTF-8"?>
<!DOCTYPE svg PUBLIC "-//W3C//DTD SVG 1.1//EN" "http://www.w3.org/Graphics/SVG/1.1/DTD/svg11.dtd">
<svg xmlns="http://www.w3.org/2000/svg" version="1.1" width="1024px" height="1024px" style="shape-rendering:geometricPrecision; text-rendering:geometricPrecision; image-rendering:optimizeQuality; fill-rule:evenodd; clip-rule:evenodd" xmlns:xlink="http://www.w3.org/1999/xlink">
<g><path style="opacity:0.051" fill="#18141e" d="M 235.5,440.5 C 227.472,440.169 219.472,440.502 211.5,441.5C 211.863,442.183 212.196,442.85 212.5,443.5C 210.824,442.817 210.157,441.483 210.5,439.5C 219.017,439.174 227.35,439.507 235.5,440.5 Z"/></g>
<g><path style="opacity:0.99" fill="#030203" d="M 541.5,469.5 C 539.973,469.427 538.973,470.094 538.5,471.5C 537.167,473.5 535.5,475.167 533.5,476.5C 531.738,477.262 530.738,478.596 530.5,480.5C 526.728,486.382 523.728,492.715 521.5,499.5C 520.539,501.265 520.205,503.265 520.5,505.5C 518.807,526.929 527.474,544.096 546.5,557C 552.497,560.276 558.83,562.443 565.5,563.5C 570.368,564.213 575.368,564.879 580.5,565.5C 581.696,565.154 581.696,564.654 580.5,564C 581.737,563.768 582.737,563.268 583.5,562.5C 585.099,562.768 586.432,562.434 587.5,561.5C 606.116,554.74 617.782,542.073 622.5,523.5C 623.043,523.44 623.376,523.107 623.5,522.5C 605.846,521.5 588.179,521.167 570.5,521.5C 569.174,515.099 569.174,508.599 570.5,502C 595.498,501.5 620.498,501.333 645.5,501.5C 648.087,538.307 632.587,564.641 599,580.5C 596.872,580.073 594.705,580.573 592.5,582C 579.814,585.036 567.147,585.203 554.5,582.5C 551.746,581.054 548.746,580.054 545.5,579.5C 534.15,576.062 524.817,569.728 517.5,560.5C 516.92,558.251 515.587,556.585 513.5,555.5C 512.158,552.834 510.325,550.501 508,548.5C 505.276,543.159 503.442,537.493 502.5,531.5C 502.435,528.572 501.768,525.905 500.5,523.5C 498.995,514.103 499.328,504.769 501.5,495.5C 502.404,494.791 502.737,493.791 502.5,492.5C 501.529,491.038 501.862,489.705 503.5,488.5C 504.404,487.791 504.737,486.791 504.5,485.5C 505.171,484.153 505.171,482.986 504.5,482C 506.301,481.683 506.634,481.016 505.5,480C 506.636,478.855 507.636,477.688 508.5,476.5C 509.89,475.101 510.89,473.434 511.5,471.5C 515.128,464.543 520.128,458.877 526.5,454.5C 530.192,452.656 533.525,450.323 536.5,447.5C 539.553,446.223 542.386,444.556 545,442.5C 545.383,443.056 545.883,443.389 546.5,443.5C 549.659,442.669 552.659,441.669 555.5,440.5C 585.886,434.526 610.886,443.526 630.5,467.5C 632.299,470.267 633.966,473.101 635.5,476C 634.631,477.869 633.465,478.369 632,477.5C 625.978,478.726 619.978,480.059 614,481.5C 592.938,457.961 568.772,453.961 541.5,469.5 Z"/></g>
<g><path style="opacity:0.256" fill="#1f1923" d="M 753.5,440.5 C 742.752,440.191 732.085,440.524 721.5,441.5C 726.456,440.172 731.789,439.505 737.5,439.5C 743.011,439.501 748.344,439.834 753.5,440.5 Z"/></g>
<g><path style="opacity:0.981" fill="#020102" d="M 235.5,440.5 C 237.074,440.937 238.241,441.937 239,443.5C 249.885,460.733 261.218,477.733 273,494.5C 275.393,497.952 277.226,501.619 278.5,505.5C 279.079,508.331 280.412,510.664 282.5,512.5C 285.09,517.091 287.59,521.758 290,526.5C 290.241,531.705 290.741,536.872 291.5,542C 291.64,555.626 291.306,569.126 290.5,582.5C 284.167,582.5 277.833,582.5 271.5,582.5C 271.829,568.656 271.496,554.99 270.5,541.5C 269.311,538.388 268.311,535.222 267.5,532C 267.833,531.667 268.167,531.333 268.5,531C 266.143,527.815 264.476,524.315 263.5,520.5C 246.672,494.607 229.672,468.941 212.5,443.5C 212.196,442.85 211.863,442.183 211.5,441.5C 219.472,440.502 227.472,440.169 235.5,440.5 Z"/></g>
<g><path style="opacity:0.981" fill="#040304" d="M 299.5,479.5 C 300.906,479.027 301.573,478.027 301.5,476.5C 302.449,474.223 303.782,472.223 305.5,470.5C 306.906,470.027 307.573,469.027 307.5,467.5C 308.906,467.027 309.573,466.027 309.5,464.5C 309.427,462.973 310.094,461.973 311.5,461.5C 313.326,459.853 314.66,457.853 315.5,455.5C 319.009,450.482 322.342,445.316 325.5,440C 333.493,439.5 341.493,439.334 349.5,439.5C 348.497,442.991 346.997,446.325 345,449.5C 331.721,469.214 318.555,489.047 305.5,509C 304.551,509.617 303.718,509.451 303,508.5C 298.695,502.508 295.195,496.508 292.5,490.5C 294.094,486.299 296.428,482.632 299.5,479.5 Z"/></g>
<g><path style="opacity:0.979" fill="#010102" d="M 374.5,439.5 C 405.174,439.167 435.841,439.5 466.5,440.5C 467.129,446.672 467.129,453.172 466.5,460C 442.502,460.5 418.502,460.667 394.5,460.5C 394.5,472.5 394.5,484.5 394.5,496.5C 415.169,496.333 435.836,496.5 456.5,497C 456.957,497.414 457.291,497.914 457.5,498.5C 456.695,504.554 456.362,510.72 456.5,517C 435.973,517.457 415.473,517.623 395,517.5C 394.5,532.83 394.333,548.163 394.5,563.5C 418.5,563.5 442.5,563.5 466.5,563.5C 466.346,569.969 466.679,576.135 467.5,582C 466.377,583.044 465.044,583.71 463.5,584C 433.836,583.979 404.169,583.479 374.5,582.5C 374.488,535.011 374.488,487.345 374.5,439.5 Z"/></g>
<g><path style="opacity:0.987" fill="#020203" d="M 753.5,440.5 C 769.473,479.048 785.14,516.381 800.5,552.5C 800.259,554.898 800.926,556.898 802.5,558.5C 805.835,566.172 809.168,573.838 812.5,581.5C 811.758,582.287 810.925,582.953 810,583.5C 803.619,583.94 797.119,583.44 790.5,582C 788.684,578.207 786.684,574.54 784.5,571C 780.466,558.805 775.466,546.638 769.5,534.5C 753.601,534.256 737.768,534.256 722,534.5C 721.626,533.584 721.126,532.75 720.5,532C 723.096,526.005 725.763,520.172 728.5,514.5C 739.838,514.667 751.172,514.5 762.5,514C 761.934,513.005 761.267,512.172 760.5,511.5C 757.666,506.832 755.666,501.832 754.5,496.5C 753.736,493.982 752.736,491.649 751.5,489.5C 749.519,488.895 749.185,487.895 750.5,486.5C 750.34,484.847 749.674,483.514 748.5,482.5C 744.857,474.305 741.357,465.971 738,457.5C 734.059,466.587 730.559,474.92 727.5,482.5C 725.992,484.181 724.992,486.181 724.5,488.5C 724.5,488.833 724.5,489.167 724.5,489.5C 723.596,490.209 723.263,491.209 723.5,492.5C 721.474,497.211 719.474,501.878 717.5,506.5C 716.596,507.209 716.263,508.209 716.5,509.5C 715.793,511.781 714.793,513.948 713.5,516C 714.258,517.364 713.758,518.531 712,519.5C 711.08,523.263 709.58,526.763 707.5,530C 708.089,531.873 707.422,533.54 705.5,535C 705.833,535.333 706.167,535.667 706.5,536C 704.647,538.571 702.981,541.238 701.5,544C 701.833,544.333 702.167,544.667 702.5,545C 696.465,556.761 691.465,569.094 687.5,582C 686.584,582.374 685.75,582.874 685,583.5C 679.982,583.37 674.648,583.37 669,583.5C 667.189,582.922 665.355,582.422 663.5,582C 666.551,572.334 670.551,562.834 675.5,553.5C 676.674,552.486 677.34,551.153 677.5,549.5C 679.219,544.394 681.219,539.394 683.5,534.5C 684.674,533.486 685.34,532.153 685.5,530.5C 686.171,529.153 686.171,527.986 685.5,527C 686.883,525.729 687.883,524.229 688.5,522.5C 689.931,521.22 690.598,519.553 690.5,517.5C 695.213,506.089 699.879,494.756 704.5,483.5C 705.401,482.71 706.068,481.71 706.5,480.5C 706.905,477.285 707.905,474.285 709.5,471.5C 710.674,470.486 711.34,469.153 711.5,467.5C 711.5,467.167 711.5,466.833 711.5,466.5C 712.931,465.22 713.598,463.553 713.5,461.5C 715.592,458.912 716.925,455.912 717.5,452.5C 717.604,450.297 718.27,448.297 719.5,446.5C 720.674,445.486 721.34,444.153 721.5,442.5C 721.5,442.167 721.5,441.833 721.5,441.5C 732.085,440.524 742.752,440.191 753.5,440.5 Z"/></g>
<g><path style="opacity:0.322" fill="#1e1720" d="M 555.5,440.5 C 552.659,441.669 549.659,442.669 546.5,443.5C 546.611,442.883 546.944,442.383 547.5,442C 550.053,441.239 552.553,440.406 555,439.5C 555.399,439.728 555.565,440.062 555.5,440.5 Z"/></g>
<g><path style="opacity:0.057" fill="#231921" d="M 721.5,442.5 C 721.34,444.153 720.674,445.486 719.5,446.5C 719.229,444.62 719.896,443.287 721.5,442.5 Z"/></g>
<g><path style="opacity:0.02" fill="#1e1721" d="M 536.5,447.5 C 533.525,450.323 530.192,452.656 526.5,454.5C 529.125,451.185 532.458,448.851 536.5,447.5 Z"/></g>
<g><path style="opacity:0.365" fill="#17101b" d="M 315.5,455.5 C 314.66,457.853 313.326,459.853 311.5,461.5C 311.845,458.802 313.178,456.802 315.5,455.5 Z"/></g>
<g><path style="opacity:0.078" fill="#1f151d" d="M 717.5,452.5 C 716.925,455.912 715.592,458.912 713.5,461.5C 714.059,458.057 715.393,455.057 717.5,452.5 Z"/></g>
<g><path style="opacity:0.059" fill="#21161f" d="M 713.5,461.5 C 713.598,463.553 712.931,465.22 711.5,466.5C 711.402,464.447 712.069,462.78 713.5,461.5 Z"/></g>
<g><path style="opacity:0.051" fill="#1b141e" d="M 309.5,464.5 C 309.573,466.027 308.906,467.027 307.5,467.5C 307.427,465.973 308.094,464.973 309.5,464.5 Z"/></g>
<g><path style="opacity:0.267" fill="#1a131e" d="M 307.5,467.5 C 307.573,469.027 306.906,470.027 305.5,470.5C 305.427,468.973 306.094,467.973 307.5,467.5 Z"/></g>
<g><path style="opacity:0.139" fill="#1f141e" d="M 711.5,467.5 C 711.34,469.153 710.674,470.486 709.5,471.5C 709.229,469.62 709.896,468.287 711.5,467.5 Z"/></g>
<g><path style="opacity:0.004" fill="#20151f" d="M 541.5,469.5 C 541.027,470.906 540.027,471.573 538.5,471.5C 538.973,470.094 539.973,469.427 541.5,469.5 Z"/></g>
<g><path style="opacity:0.224" fill="#1d151e" d="M 511.5,471.5 C 510.89,473.434 509.89,475.101 508.5,476.5C 508.273,474.067 509.273,472.401 511.5,471.5 Z"/></g>
<g><path style="opacity:0.192" fill="#1a131e" d="M 301.5,476.5 C 301.573,478.027 300.906,479.027 299.5,479.5C 299.427,477.973 300.094,476.973 301.5,476.5 Z"/></g>
<g><path style="opacity:0.004" fill="#1d141f" d="M 533.5,476.5 C 533.262,478.404 532.262,479.738 530.5,480.5C 530.738,478.596 531.738,477.262 533.5,476.5 Z"/></g>
<g><path style="opacity:0.111" fill="#1e151d" d="M 706.5,480.5 C 706.068,481.71 705.401,482.71 704.5,483.5C 704.285,481.821 704.952,480.821 706.5,480.5 Z"/></g>
<g><path style="opacity:0.141" fill="#221b1b" d="M 748.5,482.5 C 749.674,483.514 750.34,484.847 750.5,486.5C 748.896,485.713 748.229,484.38 748.5,482.5 Z"/></g>
<g><path style="opacity:0.478" fill="#20181f" d="M 504.5,485.5 C 504.737,486.791 504.404,487.791 503.5,488.5C 503.062,488.565 502.728,488.399 502.5,488C 503.066,487.005 503.733,486.172 504.5,485.5 Z"/></g>
<g><path style="opacity:0.016" fill="#170d19" d="M 727.5,482.5 C 727.614,485.216 726.614,487.216 724.5,488.5C 724.992,486.181 725.992,484.181 727.5,482.5 Z"/></g>
<g><path style="opacity:0.008" fill="#190e1b" d="M 724.5,489.5 C 724.938,489.435 725.272,489.601 725.5,490C 724.934,490.995 724.267,491.828 723.5,492.5C 723.263,491.209 723.596,490.209 724.5,489.5 Z"/></g>
<g><path style="opacity:0.384" fill="#241d22" d="M 502.5,492.5 C 502.737,493.791 502.404,494.791 501.5,495.5C 501.062,495.565 500.728,495.399 500.5,495C 501.066,494.005 501.733,493.172 502.5,492.5 Z"/></g>
<g><path style="opacity:0.278" fill="#1f181c" d="M 751.5,489.5 C 752.736,491.649 753.736,493.982 754.5,496.5C 752.166,494.824 751.166,492.491 751.5,489.5 Z"/></g>
<g><path style="opacity:0.04" fill="#1b111c" d="M 521.5,499.5 C 522.043,499.56 522.376,499.893 522.5,500.5C 521.972,502.336 521.306,504.003 520.5,505.5C 520.205,503.265 520.539,501.265 521.5,499.5 Z"/></g>
<g><path style="opacity:0.094" fill="#190f1c" d="M 717.5,506.5 C 717.938,506.435 718.272,506.601 718.5,507C 717.934,507.995 717.267,508.828 716.5,509.5C 716.263,508.209 716.596,507.209 717.5,506.5 Z"/></g>
<g><path style="opacity:0.149" fill="#170f17" d="M 278.5,505.5 C 280.588,507.336 281.921,509.669 282.5,512.5C 280.412,510.664 279.079,508.331 278.5,505.5 Z"/></g>
<g><path style="opacity:0.31" fill="#19141a" d="M 760.5,511.5 C 761.267,512.172 761.934,513.005 762.5,514C 751.172,514.5 739.838,514.667 728.5,514.5C 728.811,513.522 729.478,512.855 730.5,512.5C 735.737,513.02 741.57,513.353 748,513.5C 752.557,513.491 756.724,512.825 760.5,511.5 Z"/></g>
<g><path style="opacity:0.125" fill="#211820" d="M 690.5,517.5 C 690.598,519.553 689.931,521.22 688.5,522.5C 688.402,520.447 689.069,518.78 690.5,517.5 Z"/></g>
<g><path style="opacity:0.216" fill="#1c161c" d="M 570.5,521.5 C 588.179,521.167 605.846,521.5 623.5,522.5C 623.376,523.107 623.043,523.44 622.5,523.5C 605.167,522.833 587.833,522.167 570.5,521.5 Z"/></g>
<g><path style="opacity:0.043" fill="#19151b" d="M 500.5,523.5 C 501.768,525.905 502.435,528.572 502.5,531.5C 500.96,529.162 500.294,526.495 500.5,523.5 Z"/></g>
<g><path style="opacity:0.016" fill="#20171e" d="M 685.5,530.5 C 685.34,532.153 684.674,533.486 683.5,534.5C 683.229,532.62 683.896,531.287 685.5,530.5 Z"/></g>
<g><path style="opacity:0.042" fill="#100c12" d="M 270.5,541.5 C 271.496,554.99 271.829,568.656 271.5,582.5C 277.833,582.5 284.167,582.5 290.5,582.5C 284.021,583.491 277.354,583.824 270.5,583.5C 270.456,569.291 270.456,555.291 270.5,541.5 Z"/></g>
<g><path style="opacity:0.008" fill="#1e1620" d="M 677.5,549.5 C 677.34,551.153 676.674,552.486 675.5,553.5C 675.229,551.62 675.896,550.287 677.5,549.5 Z"/></g>
<g><path style="opacity:0.012" fill="#110c17" d="M 513.5,555.5 C 515.587,556.585 516.92,558.251 517.5,560.5C 515.413,559.415 514.08,557.749 513.5,555.5 Z"/></g>
<g><path style="opacity:0.163" fill="#160d17" d="M 800.5,552.5 C 801.391,554.291 802.391,556.124 803.5,558C 803.272,558.399 802.938,558.565 802.5,558.5C 800.926,556.898 800.259,554.898 800.5,552.5 Z"/></g>
<g><path style="opacity:0.38" fill="#1c1520" d="M 587.5,561.5 C 586.432,562.434 585.099,562.768 583.5,562.5C 584.531,561.751 585.698,561.085 587,560.5C 587.399,560.728 587.565,561.062 587.5,561.5 Z"/></g>
<g><path style="opacity:0.946" fill="#161016" d="M 583.5,562.5 C 582.737,563.268 581.737,563.768 580.5,564C 581.696,564.654 581.696,565.154 580.5,565.5C 575.368,564.879 570.368,564.213 565.5,563.5C 571.399,563.332 577.399,562.999 583.5,562.5 Z"/></g>
<g><path style="opacity:0.024" fill="#150f18" d="M 545.5,579.5 C 548.746,580.054 551.746,581.054 554.5,582.5C 554.565,582.938 554.399,583.272 554,583.5C 551.553,582.594 549.053,581.761 546.5,581C 545.944,580.617 545.611,580.117 545.5,579.5 Z"/></g>
</svg>
