<?xml version="1.0" encoding="UTF-8"?>
<!DOCTYPE svg PUBLIC "-//W3C//DTD SVG 1.1//EN" "http://www.w3.org/Graphics/SVG/1.1/DTD/svg11.dtd">
<svg xmlns="http://www.w3.org/2000/svg" version="1.1" width="1024px" height="1024px" style="shape-rendering:geometricPrecision; text-rendering:geometricPrecision; image-rendering:optimizeQuality; fill-rule:evenodd; clip-rule:evenodd" xmlns:xlink="http://www.w3.org/1999/xlink">
<g><path style="opacity:1" fill="#000000" d="M -0.5,-0.5 C 340.833,-0.5 682.167,-0.5 1023.5,-0.5C 1023.5,340.833 1023.5,682.167 1023.5,1023.5C 682.167,1023.5 340.833,1023.5 -0.5,1023.5C -0.5,682.167 -0.5,340.833 -0.5,-0.5 Z"/></g>
<g><path style="opacity:1" fill="#fafafa" d="M 622.5,523.5 C 623.043,523.44 623.376,523.107 623.5,522.5C 605.846,521.5 588.179,521.167 570.5,521.5C 570.5,515.167 570.5,508.833 570.5,502.5C 595.167,502.5 619.833,502.5 644.5,502.5C 644.5,506.5 644.5,510.5 644.5,514.5C 640.925,552.242 620.592,575.076 583.5,583C 544.899,586.965 518.399,571.132 504,535.5C 493.711,496.274 505.877,466.441 540.5,446C 573.536,432.895 602.369,439.061 627,464.5C 628.944,468.11 631.277,471.443 634,474.5C 634.483,475.448 634.649,476.448 634.5,477.5C 627.551,477.686 620.718,478.686 614,480.5C 597.144,460.886 576.31,455.053 551.5,463C 528.981,474.203 518.481,492.37 520,517.5C 526.363,548.865 545.53,564.365 577.5,564C 601.224,560.105 616.224,546.605 622.5,523.5 Z"/></g>
<g><path style="opacity:1" fill="#fdfdfd" d="M 375.5,440.5 C 405.833,440.5 436.167,440.5 466.5,440.5C 466.5,446.833 466.5,453.167 466.5,459.5C 442.5,459.5 418.5,459.5 394.5,459.5C 394.5,472.167 394.5,484.833 394.5,497.5C 414.833,497.5 435.167,497.5 455.5,497.5C 455.5,503.5 455.5,509.5 455.5,515.5C 434.993,515.17 414.66,515.503 394.5,516.5C 393.504,532.325 393.17,548.325 393.5,564.5C 417.5,564.5 441.5,564.5 465.5,564.5C 465.5,570.5 465.5,576.5 465.5,582.5C 435.5,582.5 405.5,582.5 375.5,582.5C 375.5,535.167 375.5,487.833 375.5,440.5 Z"/></g>
<g><path style="opacity:1" fill="#fafafa" d="M 810.5,580.5 C 804.021,581.491 797.354,581.824 790.5,581.5C 784.009,565.343 777.342,549.343 770.5,533.5C 754.5,532.833 738.5,532.167 722.5,531.5C 724.039,525.434 726.372,519.767 729.5,514.5C 740.167,514.5 750.833,514.5 761.5,514.5C 761.737,513.209 761.404,512.209 760.5,511.5C 753.296,492.752 745.796,474.086 738,455.5C 720.761,497.64 703.261,539.64 685.5,581.5C 678.646,581.824 671.979,581.491 665.5,580.5C 684.034,534.07 702.867,487.737 722,441.5C 732.439,440.181 742.939,440.181 753.5,441.5C 773.084,487.583 792.084,533.916 810.5,580.5 Z"/></g>
<g><path style="opacity:1" fill="#f8f8f8" d="M 211.5,440.5 C 219.86,440.169 228.193,440.502 236.5,441.5C 249.804,461.969 263.304,482.302 277,502.5C 281.318,511.136 285.651,519.802 290,528.5C 290.5,546.497 290.667,564.497 290.5,582.5C 284.167,582.5 277.833,582.5 271.5,582.5C 271.667,568.496 271.5,554.496 271,540.5C 270.144,534.597 268.477,528.931 266,523.5C 247.813,495.776 229.646,468.11 211.5,440.5 Z"/></g>
<g><path style="opacity:1" fill="#f8f8f8" d="M 325.5,440.5 C 333.507,440.334 341.507,440.5 349.5,441C 334.376,463.414 319.376,485.914 304.5,508.5C 300.618,502.454 296.952,496.287 293.5,490C 304.296,473.573 314.962,457.073 325.5,440.5 Z"/></g>
<g><path style="opacity:1" fill="#3c3c3c" d="M 570.5,502.5 C 595.328,501.502 620.328,501.169 645.5,501.5C 645.818,506.032 645.485,510.366 644.5,514.5C 644.5,510.5 644.5,506.5 644.5,502.5C 619.833,502.5 595.167,502.5 570.5,502.5 Z"/></g>
<g><path style="opacity:1" fill="#535353" d="M 760.5,511.5 C 761.404,512.209 761.737,513.209 761.5,514.5C 750.833,514.5 740.167,514.5 729.5,514.5C 740.04,514.158 750.374,513.158 760.5,511.5 Z"/></g>
<g><path style="opacity:1" fill="#c9c9c9" d="M 455.5,497.5 C 456.49,503.645 456.823,509.978 456.5,516.5C 435.833,516.5 415.167,516.5 394.5,516.5C 414.66,515.503 434.993,515.17 455.5,515.5C 455.5,509.5 455.5,503.5 455.5,497.5 Z"/></g>
<g><path style="opacity:1" fill="#3c3c3c" d="M 570.5,521.5 C 588.179,521.167 605.846,521.5 623.5,522.5C 623.376,523.107 623.043,523.44 622.5,523.5C 605.167,522.833 587.833,522.167 570.5,521.5 Z"/></g>
<g><path style="opacity:1" fill="#9a9a9a" d="M 722.5,531.5 C 738.5,532.167 754.5,532.833 770.5,533.5C 754.153,533.833 737.82,533.499 721.5,532.5C 721.624,531.893 721.957,531.56 722.5,531.5 Z"/></g>
<g><path style="opacity:1" fill="#656565" d="M 394.5,516.5 C 394.5,532.167 394.5,547.833 394.5,563.5C 418.672,563.169 442.672,563.502 466.5,564.5C 466.167,564.5 465.833,564.5 465.5,564.5C 441.5,564.5 417.5,564.5 393.5,564.5C 393.17,548.325 393.504,532.325 394.5,516.5 Z"/></g>
<g><path style="opacity:1" fill="#b7b7b7" d="M 665.5,580.5 C 671.979,581.491 678.646,581.824 685.5,581.5C 678.656,582.819 671.656,582.819 664.5,581.5C 664.624,580.893 664.957,580.56 665.5,580.5 Z"/></g>
<g><path style="opacity:1" fill="#b7b7b7" d="M 810.5,580.5 C 811.043,580.56 811.376,580.893 811.5,581.5C 804.344,582.819 797.344,582.819 790.5,581.5C 797.354,581.824 804.021,581.491 810.5,580.5 Z"/></g>
<g><path style="opacity:1" fill="#929292" d="M 375.5,440.5 C 375.5,487.833 375.5,535.167 375.5,582.5C 405.5,582.5 435.5,582.5 465.5,582.5C 465.5,576.5 465.5,570.5 465.5,564.5C 465.833,564.5 466.167,564.5 466.5,564.5C 466.5,570.833 466.5,577.167 466.5,583.5C 435.833,583.5 405.167,583.5 374.5,583.5C 374.168,535.664 374.501,487.997 375.5,440.5 Z"/></g>
</svg>
